<?xml version="1.0" encoding="UTF-8"?><svg id="Layer_1" xmlns="http://www.w3.org/2000/svg" viewBox="0 0 15.57 7.68"><defs><style>.cls-1{fill:#fff;}</style></defs><path class="cls-1" d="M7.85,4.75c0,.96-.42,1.3-1.09,1.3-.61,0-1.07-.34-1.07-1.3v-1.83h-1.78v1.83c0,.96-.42,1.3-1.09,1.3-.61,0-1.07-.34-1.07-1.3V.62H0V5.01c0,1.66,1.18,2.66,2.82,2.66,.77,0,1.47-.23,1.98-.66,.49,.43,1.17,.66,1.96,.66,1.58,0,2.85-.96,2.85-2.66,0,0-.13-.99,.09-1.84s.96-1.5,1.99-1.5c1.27,0,2.09,.96,2.09,2.17s-.82,2.17-2.09,2.17c-.45,0-.84-.12-1.16-.33-.1,.6-.33,1.12-.66,1.56,.53,.27,1.14,.43,1.82,.43,2.27,0,3.87-1.69,3.87-3.84s-1.61-3.84-3.87-3.84-3.69,1.53-3.84,3.52v1.23Z"/></svg>